<svg width="1469" height="181" viewBox="0 0 1469 181" fill="none" xmlns="http://www.w3.org/2000/svg">
<path d="M424.32 73.0089C427.832 68.4353 430.724 62.9262 437.231 61.7828C441.259 64.7972 439.4 68.3314 436.715 69.5787C432.79 71.4497 428.142 71.6575 423.803 72.593C423.803 72.4891 424.32 73.0089 424.32 73.0089Z" fill="black"/>
<path d="M1335.35 9.65506C1341.38 4.99692 1348.53 3.94516 1356.05 2.96845C1369.38 1.24043 1382.64 -0.0368714 1396.04 0.63931C1399.47 0.789573 1403.19 0.488901 1406.32 1.61587C1415.18 4.69625 1423.97 3.71984 1432.68 1.54103C1437.38 0.338932 1441.32 0.714441 1445.42 3.2689C1449.22 5.59797 1453.46 7.25101 1457.11 9.80547C1460.24 12.0594 1463.14 14.9895 1465.53 18.0699C1468.88 22.3524 1469.1 27.386 1466.5 32.1944C1465.08 34.824 1463.07 37.1531 1461.58 39.7076C1458.38 45.0419 1454.06 46.3942 1447.8 46.0185C1435.96 45.3423 1424.12 45.7931 1412.28 47.4459C1400.07 49.0988 1387.63 49.3994 1375.27 49.3994C1360.37 49.3994 1345.55 48.0471 1330.66 47.972C1318.81 47.8969 1306.9 48.7985 1295.06 49.4746C1281.73 50.2259 1268.4 51.3528 1255.07 51.9538C1242.26 52.5549 1229.37 52.7803 1216.56 53.156C1201.67 53.5317 1186.77 53.9073 1171.95 54.283C1158.1 54.6586 1144.25 55.0344 1130.47 55.5603C1128.53 55.6355 1126.52 55.9361 1124.59 56.3869C1118.03 57.8895 1115.28 61.5708 1115.87 68.2575C1116.17 71.7135 1117.07 75.1694 1117.51 78.6254C1119 90.2708 1112.67 100.113 1101.28 103.569C1095.62 105.297 1089.81 106.65 1084.07 108.152C1082.14 108.678 1080.13 108.828 1078.41 109.805C1077.3 110.406 1075.81 112.134 1075.96 113.186C1076.11 114.914 1077 117.694 1078.27 118.145C1084.74 120.474 1091.3 123.329 1098 123.855C1108.35 124.606 1118.33 127.236 1128.83 127.762C1140.53 128.287 1152.07 132.344 1163.61 134.974C1166 135.5 1168.38 136.477 1170.76 137.078C1177.02 138.806 1183.5 133.772 1189.68 137.378C1195.11 140.534 1201 139.782 1206.96 140.233C1216.71 140.834 1226.91 138.956 1236.07 144.29C1237.64 145.192 1240.02 145.041 1241.88 144.741C1249.85 143.539 1256.7 144.967 1260.2 153.682C1265.79 146.77 1271.38 146.619 1277.11 149.7C1278.45 150.451 1279.42 152.855 1279.64 154.658C1279.79 155.71 1278.3 157.814 1277.26 158.039C1266.16 160.594 1255.07 162.998 1243.89 165.026C1240.02 165.703 1236 165.177 1231.98 165.026C1219.62 164.5 1207.33 163.9 1194.97 163.449C1193.03 163.374 1190.79 163.599 1189.23 164.576C1183.27 168.182 1177.02 168.332 1170.54 166.604C1169.12 166.229 1167.56 165.853 1166.14 166.003C1145.89 167.731 1126 161.42 1105.75 163.449C1103.88 163.674 1101.87 162.923 1099.94 162.397C1097.55 161.721 1095.25 160.368 1092.86 160.143C1073.42 158.79 1055.25 151.428 1036.19 148.197C1025.46 146.394 1014.52 144.666 1005.28 138.205C1001.26 135.35 997.313 132.269 993.812 128.813C988.078 123.254 986.663 116.116 986.812 108.227C987.035 98.3101 980.407 93.126 971.545 96.9577C963.651 100.414 956.576 101.315 948.756 97.7839C946.745 96.8823 943.766 97.3334 941.532 98.0847C925.148 103.569 908.242 102.292 891.411 102.067C883.07 101.991 874.878 101.541 866.463 104.02C859.537 106.049 851.791 105.222 844.344 105.297C829.449 105.372 814.555 105.072 799.734 105.297C794.819 105.372 789.904 106.274 785.138 107.251C770.094 110.331 755.125 113.787 740.081 116.942C737.698 117.468 735.166 117.318 732.634 117.243C711.334 116.417 690.035 117.619 668.735 118.595C655.479 119.196 642.148 120.323 628.892 116.942C625.615 116.116 621.966 116.792 618.54 116.868C609.678 117.018 600.965 117.243 592.251 113.637C587.112 111.533 580.484 111.758 574.675 112.51C557.472 114.538 540.343 117.168 523.214 119.948C516.437 121.075 509.809 123.103 503.032 124.606C499.159 125.432 495.287 126.259 491.34 126.635C463.71 129.189 436.155 131.668 408.972 137.829C399.812 139.933 390.354 140.233 380.97 141.435C354.457 144.741 327.647 146.018 301.581 152.78C284.825 157.138 267.621 159.842 250.194 160.519C248.705 160.594 247.067 160.293 245.8 160.894C233.661 166.228 220.405 164.651 207.819 167.28C203.946 168.107 199.925 168.708 195.978 168.558C185.924 168.257 176.242 169.685 166.561 172.164C163.209 172.99 159.56 173.967 156.283 173.441C139.75 171.037 123.738 175.244 107.652 177.423C106.163 177.648 104.673 177.949 103.258 178.024C80.4692 178.851 57.6803 180.128 34.9659 180.278C25.6567 180.353 16.273 178.475 7.0383 176.672C1.45279 175.545 -0.483593 170.737 1.00588 164.952C2.04851 160.894 4.28275 159.016 8.30432 158.715C8.82563 158.715 9.27247 158.715 9.79379 158.715C34.7424 160.669 59.3186 158.114 83.6715 152.705C85.6078 152.254 87.6187 151.879 89.555 152.104C112.12 155.034 133.718 148.047 155.836 146.094C171.55 144.741 186.743 139.181 202.904 141.135C207.447 141.661 212.66 139.332 217.054 137.303C223.607 134.298 230.235 133.246 237.31 133.246C252.354 133.246 267.025 131.368 280.877 125.132C283.112 124.155 285.644 123.479 288.101 123.554C303.666 123.78 318.412 118.595 333.53 116.417C346.637 114.463 359.223 110.031 373.001 111.233C381.417 111.984 390.279 109.805 398.992 106.95C412.025 102.743 426.026 101.39 439.655 99.1365C458.72 95.9058 478.009 93.8771 496.851 89.5947C509.958 86.5894 523.065 84.9367 536.396 83.7346C550.174 82.4573 563.653 78.851 577.282 76.2214C578.771 75.9209 580.559 75.8456 581.527 74.9441C591.581 65.4024 604.912 68.7082 616.604 65.6279C620.923 64.5009 625.541 64.6511 629.786 63.2987C644.606 58.4152 659.948 57.8893 675.289 57.2882C679.087 57.138 683.556 56.5371 686.535 54.5086C694.876 48.7235 704.557 48.4981 713.643 48.4981C724.144 48.4981 734.347 47.4462 744.698 46.2441C752.593 45.3426 760.561 45.1922 768.381 44.2906C779.18 43.0886 789.904 41.5858 800.628 40.0832C802.118 39.8578 803.458 38.8059 804.873 38.8811C809.639 39.1064 814.629 40.534 819.172 39.7076C823.342 38.9563 826.917 35.8757 831.758 35.8006C838.163 35.7255 844.568 33.7722 850.898 34.0727C867.133 34.9743 882.251 29.7902 897.667 26.5596C906.455 24.6813 915.168 22.8032 923.956 26.71C925.595 27.4613 927.978 27.311 929.691 26.6348C939.298 23.1036 949.203 23.8547 959.182 24.1553C968.119 24.3806 976.982 24.3809 985.769 21.7513C989.493 20.6243 993.589 20.9248 997.536 20.6243C1004.46 20.0233 1011.31 19.1215 1018.24 18.8961C1032.61 18.3701 1046.99 17.4688 1061.29 17.9947C1074.24 18.4455 1086.98 18.0697 1099.79 15.966C1114.91 13.4867 1130.25 12.3596 1145.66 13.2612C1149.61 13.4866 1153.56 13.3366 1157.51 13.1864C1165.4 12.8107 1173.29 12.2845 1181.19 11.7586C1183.65 11.6083 1186.33 11.834 1188.49 10.9324C1197.2 7.32614 1206.06 8.67843 1214.92 9.73027C1220.81 10.4064 1226.47 10.8572 1232.35 8.22764C1240.32 4.69647 1248.88 6.27401 1257.3 6.87506C1262.74 7.25071 1268.17 7.47611 1273.54 7.25072C1288.43 6.57453 1303.25 5.14704 1318.07 4.99678C1323.43 4.62112 1328.57 7.55139 1335.35 9.65506Z" fill="black"/>
</svg>
